<?xml version="1.0" encoding="iso-8859-1"?>
<!-- Uploaded to: SVG Repo, www.svgrepo.com, Generator: SVG Repo Mixer Tools -->
<svg height="800px" width="800px" version="1.1" id="Layer_1" xmlns="http://www.w3.org/2000/svg" xmlns:xlink="http://www.w3.org/1999/xlink" 
	 viewBox="0 0 512 512" xml:space="preserve">
<path style="fill:#5CB0FF;" d="M195.041,161.986l86.255,37.94v-86.149H101.147v86.149l86.255-37.94
	C189.837,160.921,192.606,160.921,195.041,161.986z"/>
<g>
	<path style="fill:#D0E8FF;" d="M101.147,308.468v99.236h180.148v-99.236c0-0.875,0.12-1.745,0.361-2.588l21.449-75.639
		l-111.884-49.218L79.337,230.241l21.449,75.639C101.027,306.722,101.147,307.593,101.147,308.468z"/>
	<polygon style="fill:#D0E8FF;" points="243.37,47.407 162.777,47.407 143.814,47.407 139.073,47.407 139.073,94.815 243.37,94.815 
			"/>
</g>
<g>
	<path style="fill:#1C71DA;" d="M475.666,436.148c-5.236,0-9.481,4.245-9.481,9.481c0,26.139-21.269,47.407-47.407,47.407
		c-26.139,0-47.407-21.269-47.407-47.407c0-5.236-4.245-9.481-9.481-9.481s-9.481,4.245-9.481,9.481
		c0,26.139-21.269,47.407-47.407,47.407c-26.139,0-47.407-21.269-47.407-47.407c0-5.236-4.245-9.481-9.481-9.481
		s-9.481,4.245-9.481,9.481c0,26.139-21.269,47.407-47.407,47.407s-47.407-21.269-47.407-47.407c0-5.236-4.245-9.481-9.481-9.481
		c-5.236,0-9.481,4.245-9.481,9.481c0,26.139-21.269,47.407-47.407,47.407s-47.407-21.269-47.407-47.407
		c0-5.236-4.245-9.481-9.481-9.481s-9.481,4.245-9.481,9.481c0,36.597,29.773,66.37,66.37,66.37
		c24.157,0,45.278-13.015,56.889-32.36c11.611,19.345,32.732,32.36,56.889,32.36s45.278-13.015,56.889-32.36
		c11.611,19.345,32.731,32.36,56.889,32.36s45.278-13.015,56.889-32.36C373.499,498.985,394.62,512,418.777,512
		c36.597,0,66.37-29.773,66.37-66.37C485.147,440.393,480.902,436.148,475.666,436.148z"/>
	<path style="fill:#1C71DA;" d="M82.185,309.787v107.398c0,5.236,4.245,9.481,9.481,9.481h199.111c5.236,0,9.481-4.245,9.481-9.481
		V309.787l23.343-82.315c1.292-4.556-0.972-9.361-5.301-11.269l-18.042-7.936V104.296c0-5.236-4.245-9.481-9.481-9.481h-28.444
		V37.926c0-5.236-4.245-9.481-9.481-9.481h-90.074V0h-18.963v28.444h-14.222c-5.236,0-9.481,4.245-9.481,9.481v56.889H91.666
		c-5.236,0-9.481,4.245-9.481,9.481v103.972l-18.042,7.936c-4.329,1.907-6.592,6.713-5.301,11.269L82.185,309.787z M139.073,47.407
		h4.741h18.963h80.593v47.407H139.073V47.407z M101.147,113.778h180.148v86.149l-86.255-37.94c-2.435-1.065-5.204-1.065-7.639,0
		l-86.254,37.94V113.778z M191.222,181.023l111.884,49.218l-21.449,75.639c-0.241,0.843-0.361,1.713-0.361,2.588v99.236H101.147
		v-99.236c0-0.875-0.12-1.745-0.361-2.588l-21.449-75.639L191.222,181.023z"/>
</g>
<g>
	<path style="fill:#FF5D5D;" d="M457.923,367.407c-2.427,0-4.853-0.926-6.705-2.777c-3.703-3.704-3.703-9.706,0-13.41l33.522-33.522
		c3.704-3.701,9.706-3.701,13.41,0c3.703,3.704,3.703,9.706,0,13.41l-33.522,33.522C462.776,366.482,460.35,367.407,457.923,367.407
		z"/>
	<path style="fill:#FF5D5D;" d="M491.445,367.407c-2.427,0-4.853-0.926-6.705-2.777l-33.522-33.522
		c-3.703-3.704-3.703-9.706,0-13.41c3.704-3.701,9.706-3.701,13.41,0l33.522,33.522c3.703,3.704,3.703,9.706,0,13.41
		C496.298,366.482,493.872,367.407,491.445,367.407z"/>
</g>
<path style="fill:#00D40B;" d="M45.478,414.815c-18.299,0-33.185-14.887-33.185-33.185c0-18.299,14.887-33.185,33.185-33.185
	s33.185,14.887,33.185,33.185C78.664,399.928,63.777,414.815,45.478,414.815z M45.478,367.407c-7.843,0-14.222,6.38-14.222,14.222
	s6.38,14.222,14.222,14.222s14.222-6.38,14.222-14.222S53.321,367.407,45.478,367.407z"/>
<path style="fill:#FFC504;" d="M427.852,174.524c-2.515,0-4.926-0.999-6.705-2.777l-26.818-26.818
	c-1.778-1.779-2.777-4.19-2.777-6.705c0-2.515,0.999-4.926,2.778-6.705l26.818-26.817c3.704-3.701,9.707-3.7,13.408,0l26.817,26.817
	c3.702,3.704,3.702,9.706,0,13.408l-26.817,26.818C432.778,173.526,430.367,174.524,427.852,174.524z M414.443,138.225l13.41,13.41
	l13.408-13.41l-13.408-13.408L414.443,138.225z"/>
</svg>